<?xml version="1.0" encoding="UTF-8" standalone="no"?>
<svg
   xmlns:dc="http://purl.org/dc/elements/1.1/"
   xmlns:cc="http://creativecommons.org/ns#"
   xmlns:rdf="http://www.w3.org/1999/02/22-rdf-syntax-ns#"
   xmlns:svg="http://www.w3.org/2000/svg"
   xmlns="http://www.w3.org/2000/svg"
   viewBox="0 0 132.28387 132.28387"
   height="132.28387"
   width="132.28387"
   xml:space="preserve"
   id="svg2"
   version="1.1"><metadata
     id="metadata8"><rdf:RDF><cc:Work
         rdf:about=""><dc:format>image/svg+xml</dc:format><dc:type
           rdf:resource="http://purl.org/dc/dcmitype/StillImage" /></cc:Work></rdf:RDF></metadata><defs
     id="defs6"><clipPath
       id="clipPath18"
       clipPathUnits="userSpaceOnUse"><path
         id="path16"
         d="M 0,99.213 H 99.213 V 0 H 0 Z" /></clipPath></defs><g
     transform="matrix(1.3333333,0,0,-1.3333333,0,132.28387)"
     id="g10"><g
       id="g12"><g
         clip-path="url(#clipPath18)"
         id="g14"><g
           transform="translate(40.3042,52.7056)"
           id="g20"><path
             id="path22"
             style="fill:#465a64;fill-opacity:1;fill-rule:nonzero;stroke:none"
             d="m 0,0 c -0.095,0 -0.19,0.006 -0.284,0.02 l -11.268,1.574 c -0.524,0.073 -0.959,0.354 -1.194,0.771 -0.233,0.417 -0.248,0.934 -0.038,1.42 l 1.876,4.35 c 0.381,0.881 1.427,1.645 2.383,1.739 l 12.762,1.251 c 0.067,0.007 0.132,0.01 0.195,0.01 0.492,0 0.89,-0.193 1.12,-0.542 C 5.791,10.229 5.806,9.758 5.594,9.266 L 2.209,1.421 C 1.854,0.598 0.925,0 0,0 Z" /></g><g
           transform="translate(44.7358,64.3403)"
           id="g24"><path
             id="path26"
             style="fill:#ffffff;fill-opacity:1;fill-rule:nonzero;stroke:none"
             d="m 0,0 c -0.078,0 -0.16,-0.004 -0.244,-0.012 l -12.762,-1.252 c -1.139,-0.111 -2.339,-0.987 -2.792,-2.038 l -1.877,-4.35 c -0.272,-0.63 -0.249,-1.309 0.062,-1.863 0.312,-0.554 0.88,-0.926 1.56,-1.021 l 11.268,-1.574 c 0.117,-0.017 0.235,-0.025 0.354,-0.025 1.133,0 2.23,0.709 2.668,1.723 l 3.384,7.846 C 1.898,-1.925 1.868,-1.269 1.538,-0.767 1.217,-0.28 0.657,0 0,0 m 0,-1 c 0.677,0 0.992,-0.501 0.703,-1.17 l -3.384,-7.845 c -0.281,-0.65 -1.036,-1.12 -1.75,-1.12 -0.072,0 -0.145,0.005 -0.215,0.015 l -11.269,1.574 c -0.772,0.108 -1.151,0.782 -0.842,1.498 l 1.877,4.35 c 0.309,0.716 1.196,1.363 1.972,1.439 l 12.762,1.252 C -0.096,-1.002 -0.047,-1 0,-1" /></g><g
           transform="translate(83.5278,15.8418)"
           id="g28"><path
             id="path30"
             style="fill:none;stroke:#d32f2f;stroke-width:1;stroke-linecap:round;stroke-linejoin:miter;stroke-miterlimit:10;stroke-dasharray:none;stroke-opacity:1"
             d="m 0,0 c -11.593,-8.762 -26.457,-13.05 -41.844,-10.785 -3.117,0.459 -6.13,1.18 -9.032,2.117" /></g><g
           transform="translate(44.8271,50.1362)"
           id="g32"><path
             id="path34"
             style="fill:#465a64;fill-opacity:1;fill-rule:nonzero;stroke:none"
             d="m 0,0 v 12.456 c 0,3.197 1.481,5.702 3.373,5.702 h 3.829 c 1.892,0 3.373,-2.505 3.373,-5.702 V 0 Z" /></g><g
           transform="translate(52.0293,68.7944)"
           id="g36"><path
             id="path38"
             style="fill:#ffffff;fill-opacity:1;fill-rule:nonzero;stroke:none"
             d="m 0,0 h -3.83 c -2.207,0 -3.872,-2.667 -3.872,-6.203 v -11.955 -1 h 1 9.575 1 v 1 11.955 C 3.873,-2.725 2.172,0 0,0 m 0,-1 c 1.586,0 2.873,-2.331 2.873,-5.203 v -11.955 h -9.575 v 11.955 c 0,2.872 1.285,5.203 2.872,5.203 L 0,-1" /></g><g
           transform="translate(77.667,47.4854)"
           id="g40"><path
             id="path42"
             style="fill:#465a64;fill-opacity:1;fill-rule:nonzero;stroke:none"
             d="m 0,0 c -0.095,0 -0.19,0.006 -0.284,0.02 l -24.241,3.386 c -0.524,0.073 -0.959,0.355 -1.193,0.771 -0.234,0.417 -0.248,0.935 -0.039,1.42 l 4.489,10.406 c 0.381,0.882 1.427,1.645 2.383,1.739 l 27.124,2.66 c 0.068,0.007 0.133,0.01 0.195,0.01 0.493,0 0.891,-0.192 1.12,-0.542 0.239,-0.364 0.255,-0.835 0.042,-1.327 L 2.209,1.421 C 1.854,0.598 0.925,0 0,0 Z" /></g><g
           transform="translate(86.1011,68.3975)"
           id="g44"><path
             id="path46"
             style="fill:#ffffff;fill-opacity:1;fill-rule:nonzero;stroke:none"
             d="m 0,0 c -0.078,0 -0.16,-0.004 -0.244,-0.012 l -27.124,-2.66 c -1.139,-0.112 -2.34,-0.988 -2.793,-2.038 l -4.489,-10.407 c -0.272,-0.63 -0.249,-1.309 0.062,-1.862 0.312,-0.555 0.88,-0.927 1.56,-1.022 l 24.241,-3.387 c 0.116,-0.016 0.234,-0.024 0.353,-0.024 1.133,0 2.23,0.708 2.668,1.723 L 1.621,-2.566 C 1.898,-1.925 1.868,-1.269 1.538,-0.767 1.217,-0.28 0.657,0 0,0 m 0,-1 c 0.677,0 0.992,-0.501 0.703,-1.17 l -7.387,-17.122 c -0.28,-0.65 -1.035,-1.12 -1.75,-1.12 -0.072,0 -0.144,0.005 -0.215,0.015 l -24.241,3.386 c -0.772,0.108 -1.151,0.782 -0.842,1.498 l 4.489,10.406 c 0.309,0.716 1.197,1.363 1.972,1.44 l 27.125,2.66 C -0.096,-1.002 -0.047,-1 0,-1" /></g><g
           transform="translate(49.8271,50.3442)"
           id="g48"><path
             id="path50"
             style="fill:#d32f2f;fill-opacity:1;fill-rule:nonzero;stroke:none"
             d="m 0,0 c -3.409,-0.443 -6.333,-2.16 -8.385,-4.599 l 7.108,0.924 c 0.124,-0.952 0.997,-1.624 1.95,-1.502 0.952,0.125 1.625,0.997 1.501,1.951 l 7.107,0.923 C 6.674,-0.47 3.41,0.443 0,0" /></g><g
           transform="translate(65.0952,39.2178)"
           id="g52"><path
             id="path54"
             style="fill:none;stroke:#d32f2f;stroke-width:1;stroke-linecap:round;stroke-linejoin:miter;stroke-miterlimit:10;stroke-dasharray:none;stroke-opacity:1"
             d="m 0,0 c -4.234,-3.893 -9.885,-6.27 -16.09,-6.27 -2.524,0 -4.956,0.393 -7.238,1.123" /></g><g
           transform="translate(69.1768,34.1445)"
           id="g56"><path
             id="path58"
             style="fill:none;stroke:#d32f2f;stroke-width:1;stroke-linecap:round;stroke-linejoin:miter;stroke-miterlimit:10;stroke-dasharray:none;stroke-opacity:1"
             d="m 0,0 c -5.355,-4.786 -12.423,-7.696 -20.171,-7.696 -3.255,0 -6.39,0.513 -9.329,1.464" /></g><g
           transform="translate(73.3916,28.9072)"
           id="g60"><path
             id="path62"
             style="fill:none;stroke:#d32f2f;stroke-width:1;stroke-linecap:round;stroke-linejoin:miter;stroke-miterlimit:10;stroke-dasharray:none;stroke-opacity:1"
             d="m 0,0 c -6.511,-5.711 -15.044,-9.174 -24.386,-9.174 -4.044,0 -7.936,0.649 -11.577,1.848" /></g><g
           transform="translate(78.2144,22.9121)"
           id="g64"><path
             id="path66"
             style="fill:none;stroke:#d32f2f;stroke-width:1;stroke-linecap:round;stroke-linejoin:miter;stroke-miterlimit:10;stroke-dasharray:none;stroke-opacity:1"
             d="m 0,0 c -7.833,-6.771 -18.042,-10.867 -29.209,-10.867 -4.889,0 -9.594,0.785 -13.997,2.235" /></g><g
           transform="translate(50.1147,94.7539)"
           id="g68"><path
             id="path70"
             style="fill:#465a64;fill-opacity:1;fill-rule:nonzero;stroke:none"
             d="m 0,0 c -21.135,0 -38.268,-17.133 -38.268,-38.266 0,-15.889 9.689,-29.508 23.478,-35.294 l 4.971,13.3 c -8.41,3.76 -14.276,12.186 -14.276,21.994 0,13.306 10.788,24.093 24.095,24.093 9.159,0 17.124,-5.11 21.2,-12.634 l 14.849,1.393 C 30.768,-10.604 16.625,0 0,0" /></g></g></g></g></svg>