<?xml version="1.0" encoding="UTF-8" standalone="no"?>
<svg
   xmlns:dc="http://purl.org/dc/elements/1.1/"
   xmlns:cc="http://creativecommons.org/ns#"
   xmlns:rdf="http://www.w3.org/1999/02/22-rdf-syntax-ns#"
   xmlns:svg="http://www.w3.org/2000/svg"
   xmlns="http://www.w3.org/2000/svg"
   id="svg10"
   version="1.1"
   width="24"
   height="24">
  <metadata
     id="metadata16">
    <rdf:RDF>
      <cc:Work
         rdf:about="">
        <dc:format>image/svg+xml</dc:format>
        <dc:type
           rdf:resource="http://purl.org/dc/dcmitype/StillImage" />
        <dc:title></dc:title>
      </cc:Work>
    </rdf:RDF>
  </metadata>
  <defs
     id="defs14" />
  <path
     id="path2"
     d="M0 0h24v24H0z"
     fill="none" />
  <path
     d="M 4.2695312,3 3,4.2695312 l 4,4 V 9 h 0.7304688 l 2,2 H 7 v 2 h 4.730469 l 2,2 H 7 v 2 h 8.730469 l 4,4 L 21,19.730469 18.269531,17 l -2,-2 -2,-2 -2,-2 -2,-2 L 8.2695312,7 Z M 3,7 V 9 H 5 V 7 Z m 7.808594,0 2,2 H 21 V 7 Z M 3,11 v 2 h 2 v -2 z m 11.808594,0 2,2 H 21 V 11 Z M 3,15 v 2 h 2 v -2 z m 15.808594,0 2,2 H 21 v -2 z"
     style="fill-opacity:1;"
     id="path4" />
  <path
     id="path8"
     fill="none"
     d="M0 0h24v24H0z" />
</svg>
