<?xml version="1.0" encoding="UTF-8" standalone="no"?>
<svg
   xmlns:dc="http://purl.org/dc/elements/1.1/"
   xmlns:cc="http://creativecommons.org/ns#"
   xmlns:rdf="http://www.w3.org/1999/02/22-rdf-syntax-ns#"
   xmlns:svg="http://www.w3.org/2000/svg"
   xmlns="http://www.w3.org/2000/svg"
   viewBox="0 0 613.33331 252.66667"
   height="252.66667"
   width="613.33331"
   xml:space="preserve"
   id="svg2"
   version="1.1"><metadata
     id="metadata8"><rdf:RDF><cc:Work
         rdf:about=""><dc:format>image/svg+xml</dc:format><dc:type
           rdf:resource="http://purl.org/dc/dcmitype/StillImage" /></cc:Work></rdf:RDF></metadata><defs
     id="defs6"><clipPath
       id="clipPath18"
       clipPathUnits="userSpaceOnUse"><path
         id="path16"
         d="m 365.867,142.697 c 0.005,-0.33 -0.242,-0.416 -0.141,-0.846 v 0 c 0.252,-0.034 0.463,0.194 0.523,0.423 v 0 c 0.056,0.213 -0.02,0.426 -0.316,0.426 v 0 c -0.021,0 -0.043,-10e-4 -0.066,-0.003" /></clipPath><linearGradient
       id="linearGradient32"
       spreadMethod="pad"
       gradientTransform="matrix(50.823532,114.82355,-114.82353,50.823532,330.15527,61.282227)"
       gradientUnits="userSpaceOnUse"
       y2="0"
       x2="1"
       y1="0"
       x1="0"><stop
         id="stop24"
         offset="0"
         style="stop-opacity:1;stop-color:#1d1d1b" /><stop
         id="stop26"
         offset="0.6333198"
         style="stop-opacity:1;stop-color:#484747" /><stop
         id="stop28"
         offset="0.857819"
         style="stop-opacity:1;stop-color:#484747" /><stop
         id="stop30"
         offset="1"
         style="stop-opacity:1;stop-color:#484747" /></linearGradient><clipPath
       id="clipPath42"
       clipPathUnits="userSpaceOnUse"><path
         id="path40"
         d="M 0,189.5 H 460 V 0 H 0 Z" /></clipPath></defs><g
     transform="matrix(1.3333333,0,0,-1.3333333,0,252.66667)"
     id="g10"><g
       id="g12"><g
         clip-path="url(#clipPath18)"
         id="g14"><g
           id="g20"><g
             id="g22"><path
               id="path34"
               style="fill:url(#linearGradient32);stroke:none"
               d="m 365.867,142.697 c 0.005,-0.33 -0.242,-0.416 -0.141,-0.846 v 0 c 0.252,-0.034 0.463,0.194 0.523,0.423 v 0 c 0.056,0.213 -0.02,0.426 -0.316,0.426 v 0 c -0.021,0 -0.043,-10e-4 -0.066,-0.003" /></g></g></g></g><g
       id="g36"><g
         clip-path="url(#clipPath42)"
         id="g38"><g
           transform="translate(246.4434,12.9482)"
           id="g44"><path
             id="path46"
             style="fill:#d32f2f;fill-opacity:1;fill-rule:nonzero;stroke:none"
             d="m 0,0 v 36.12 h 4.06 v -8.47 c 1.166,2.893 2.94,5.121 5.32,6.685 2.38,1.563 5.203,2.345 8.47,2.345 v -4.41 c -3.967,0 -7.2,-1.205 -9.695,-3.613 C 5.658,26.249 4.41,23.126 4.41,19.292 V 0 Z" /></g><g
           transform="translate(271.082,33.5283)"
           id="g48"><path
             id="path50"
             style="fill:#d32f2f;fill-opacity:1;fill-rule:nonzero;stroke:none"
             d="m 0,0 h 23.38 c 0,3.546 -1.004,6.533 -3.01,8.96 -2.147,2.613 -4.97,3.92 -8.47,3.92 C 8.493,12.88 5.693,11.573 3.5,8.96 1.54,6.626 0.373,3.64 0,0 M 27.79,-3.71 H 0 c 0,-3.716 0.915,-6.873 2.746,-9.473 2.206,-3.112 5.282,-4.667 9.226,-4.667 3.144,0 5.644,0.798 7.499,2.396 1.855,1.599 3.158,3.855 3.909,6.774 h 4.27 c -0.98,-4.224 -2.684,-7.381 -5.11,-9.468 -2.614,-2.276 -6.16,-3.413 -10.64,-3.413 -5.46,0 -9.614,1.887 -12.46,5.661 -2.567,3.353 -3.85,7.825 -3.85,13.415 0,5.217 1.283,9.573 3.85,13.066 2.94,4.005 7.093,6.009 12.46,6.009 5.413,0 9.52,-2.1 12.32,-6.3 2.38,-3.594 3.57,-8.26 3.57,-14" /></g><g
           transform="translate(330.8623,38.498)"
           id="g52"><path
             id="path54"
             style="fill:#d32f2f;fill-opacity:1;fill-rule:nonzero;stroke:none"
             d="m 0,0 h -4.41 c 0,2.613 -0.887,4.585 -2.66,5.915 -1.775,1.33 -4.037,1.995 -6.79,1.995 -2.334,0 -4.247,-0.443 -5.741,-1.328 -1.866,-1.117 -2.799,-2.747 -2.799,-4.889 0,-1.723 0.863,-3.122 2.589,-4.192 1.166,-0.699 2.801,-1.328 4.901,-1.886 l 5.88,-1.328 c 2.892,-0.42 5.225,-1.373 7,-2.863 2.193,-1.817 3.29,-4.193 3.29,-7.126 0,-3.586 -1.565,-6.358 -4.691,-8.314 -2.707,-1.674 -5.973,-2.514 -9.799,-2.514 -4.48,0 -8.004,0.998 -10.57,2.994 -2.847,2.226 -4.27,5.452 -4.27,9.677 h 4.41 c 0,-2.826 1.003,-5.026 3.01,-6.599 2.005,-1.575 4.549,-2.361 7.629,-2.361 2.426,0 4.574,0.511 6.441,1.536 2.286,1.258 3.43,3.027 3.43,5.309 0,1.863 -0.817,3.354 -2.451,4.471 -1.167,0.792 -2.986,1.49 -5.46,2.096 l -5.669,1.258 c -3.36,0.883 -5.764,1.908 -7.21,3.073 -1.914,1.537 -2.871,3.725 -2.871,6.567 0,3.4 1.471,6.007 4.411,7.823 2.472,1.538 5.53,2.306 9.17,2.306 3.826,0 6.93,-0.957 9.31,-2.87 C -1.308,6.65 0,3.733 0,0" /></g><g
           transform="translate(368.3809,37.7285)"
           id="g56"><path
             id="path58"
             style="fill:#d32f2f;fill-opacity:1;fill-rule:nonzero;stroke:none"
             d="m 0,0 h -4.41 c -0.607,2.8 -1.75,4.945 -3.43,6.439 -1.68,1.494 -3.944,2.241 -6.79,2.241 -4.014,0 -7.186,-1.584 -9.519,-4.749 C -26.25,1.09 -27.3,-2.448 -27.3,-6.686 c 0,-4.143 1.05,-7.659 3.151,-10.545 2.333,-3.213 5.505,-4.819 9.519,-4.819 2.753,0 5.121,0.961 7.106,2.885 1.982,1.923 3.114,4.368 3.394,7.335 h 4.41 c -0.607,-4.318 -2.229,-7.72 -4.865,-10.204 -2.637,-2.485 -5.985,-3.727 -10.045,-3.727 -5.32,0 -9.544,1.887 -12.67,5.66 -2.94,3.54 -4.41,8.012 -4.41,13.415 0,5.45 1.446,9.922 4.34,13.415 3.126,3.774 7.373,5.661 12.74,5.661 3.966,0 7.28,-1.062 9.941,-3.185 C -2.03,7.081 -0.467,4.013 0,0" /></g><g
           transform="translate(404.0811,49.0684)"
           id="g60"><path
             id="path62"
             style="fill:#d32f2f;fill-opacity:1;fill-rule:nonzero;stroke:none"
             d="m 0,0 v -36.12 h -4.06 v 6.51 c -1.214,-2.358 -2.929,-4.197 -5.145,-5.514 -2.217,-1.316 -4.702,-1.977 -7.455,-1.977 -4.387,0 -7.595,1.189 -9.625,3.564 -2.03,2.376 -3.045,5.753 -3.045,10.131 V 0 h 4.41 v -23.471 c 0,-3.353 0.746,-5.844 2.24,-7.474 1.493,-1.63 3.966,-2.445 7.42,-2.445 3.546,0 6.3,1.49 8.26,4.47 1.726,2.607 2.59,5.938 2.59,9.989 V 0 Z" /></g><g
           transform="translate(415,33.5283)"
           id="g64"><path
             id="path66"
             style="fill:#d32f2f;fill-opacity:1;fill-rule:nonzero;stroke:none"
             d="m 0,0 h 23.38 c 0,3.546 -1.004,6.533 -3.01,8.96 -2.147,2.613 -4.97,3.92 -8.47,3.92 C 8.493,12.88 5.693,11.573 3.5,8.96 1.54,6.626 0.373,3.64 0,0 M 27.79,-3.71 H 0 c 0,-3.716 0.915,-6.873 2.746,-9.473 2.206,-3.112 5.282,-4.667 9.226,-4.667 3.144,0 5.644,0.798 7.499,2.396 1.855,1.599 3.158,3.855 3.909,6.774 h 4.27 c -0.98,-4.224 -2.684,-7.381 -5.11,-9.468 -2.614,-2.276 -6.16,-3.413 -10.64,-3.413 -5.46,0 -9.614,1.887 -12.46,5.661 -2.567,3.353 -3.85,7.825 -3.85,13.415 0,5.217 1.283,9.573 3.85,13.066 2.94,4.005 7.093,6.009 12.46,6.009 5.413,0 9.52,-2.1 12.32,-6.3 2.38,-3.594 3.57,-8.26 3.57,-14" /></g><g
           transform="translate(206.9966,77.2793)"
           id="g68"><path
             id="path70"
             style="fill:#465a64;fill-opacity:1;fill-rule:nonzero;stroke:none"
             d="M 0,0 C -13.307,0 -24.095,10.786 -24.095,24.094 -24.095,37.4 -13.307,48.187 0,48.187 13.307,48.187 24.095,37.4 24.095,24.094 24.095,10.786 13.307,0 0,0 m 0,62.36 c -21.135,0 -38.268,-17.133 -38.268,-38.266 0,-21.134 17.133,-38.267 38.268,-38.267 9.134,0 17.516,3.204 24.095,8.544 v -7.96 H 38.268 V 24.094 C 38.268,45.227 21.135,62.36 0,62.36" /></g><g
           transform="translate(129.7324,101.4736)"
           id="g72"><path
             id="path74"
             style="fill:#465a64;fill-opacity:1;fill-rule:nonzero;stroke:none"
             d="m 0,0 h -0.04 v -37.884 h 14.173 v 37.783 h 0.037 c 0,13.307 10.788,24.094 24.094,24.094 V 38.166 C 17.163,38.166 0.055,21.087 0,0" /></g><g
           transform="translate(153.9331,177.0742)"
           id="g76"><path
             id="path78"
             style="fill:#465a64;fill-opacity:1;fill-rule:nonzero;stroke:none"
             d="m 0,0 h -35.432 -14.173 -35.434 v -14.173 h 35.434 v -99.211 h 14.173 v 99.211 H 0 Z" /></g><g
           transform="translate(327.5127,139.833)"
           id="g80"><path
             id="path82"
             style="fill:#465a64;fill-opacity:1;fill-rule:nonzero;stroke:none"
             d="M 0,0 H -17.921 L -38.369,-26.422 -58.817,0 h -17.921 l 29.408,-38 -29.408,-38 h 17.923 L -38.369,-49.58 -17.923,-76 H 0 l -29.408,38 z" /></g><g
           transform="translate(44.3555,97.5908)"
           id="g84"><path
             id="path86"
             style="fill:#465a64;fill-opacity:1;fill-rule:nonzero;stroke:none"
             d="m 0,0 c -0.095,0 -0.19,0.006 -0.284,0.02 l -11.268,1.574 c -0.524,0.073 -0.959,0.354 -1.194,0.771 -0.233,0.417 -0.248,0.934 -0.038,1.42 l 1.876,4.35 c 0.381,0.881 1.427,1.645 2.383,1.739 l 12.762,1.251 c 0.067,0.007 0.132,0.01 0.195,0.01 0.492,0 0.89,-0.193 1.12,-0.542 C 5.791,10.229 5.806,9.758 5.594,9.266 L 2.209,1.421 C 1.854,0.598 0.925,0 0,0 Z" /></g><g
           transform="translate(48.7871,109.2256)"
           id="g88"><path
             id="path90"
             style="fill:#ffffff;fill-opacity:1;fill-rule:nonzero;stroke:none"
             d="m 0,0 c -0.078,0 -0.16,-0.004 -0.244,-0.012 l -12.762,-1.252 c -1.139,-0.111 -2.339,-0.987 -2.792,-2.038 l -1.877,-4.35 c -0.272,-0.63 -0.249,-1.309 0.062,-1.863 0.312,-0.554 0.88,-0.926 1.56,-1.021 l 11.268,-1.574 c 0.117,-0.017 0.235,-0.025 0.354,-0.025 1.133,0 2.23,0.709 2.668,1.723 l 3.384,7.846 C 1.898,-1.925 1.868,-1.269 1.538,-0.767 1.217,-0.28 0.657,0 0,0 m 0,-1 c 0.677,0 0.992,-0.501 0.703,-1.17 l -3.384,-7.845 c -0.281,-0.65 -1.036,-1.12 -1.75,-1.12 -0.073,0 -0.145,0.005 -0.215,0.015 l -11.269,1.574 c -0.772,0.108 -1.151,0.782 -0.842,1.498 l 1.877,4.35 c 0.309,0.716 1.196,1.363 1.972,1.439 l 12.762,1.252 C -0.096,-1.002 -0.047,-1 0,-1" /></g><g
           transform="translate(87.5791,60.7266)"
           id="g92"><path
             id="path94"
             style="fill:none;stroke:#d32f2f;stroke-width:1;stroke-linecap:round;stroke-linejoin:miter;stroke-miterlimit:10;stroke-dasharray:none;stroke-opacity:1"
             d="m 0,0 c -11.593,-8.762 -26.457,-13.05 -41.844,-10.785 -3.117,0.459 -6.13,1.18 -9.032,2.117" /></g><g
           transform="translate(48.8784,95.0215)"
           id="g96"><path
             id="path98"
             style="fill:#465a64;fill-opacity:1;fill-rule:nonzero;stroke:none"
             d="m 0,0 v 12.456 c 0,3.197 1.481,5.702 3.373,5.702 h 3.829 c 1.892,0 3.373,-2.505 3.373,-5.702 V 0 Z" /></g><g
           transform="translate(56.0806,113.6797)"
           id="g100"><path
             id="path102"
             style="fill:#ffffff;fill-opacity:1;fill-rule:nonzero;stroke:none"
             d="m 0,0 h -3.83 c -2.207,0 -3.872,-2.667 -3.872,-6.203 v -11.955 -1 h 1 9.575 1 v 1 11.955 C 3.873,-2.725 2.172,0 0,0 m 0,-1 c 1.586,0 2.873,-2.331 2.873,-5.203 v -11.955 h -9.575 v 11.955 c 0,2.872 1.285,5.203 2.872,5.203 L 0,-1" /></g><g
           transform="translate(81.7183,92.3706)"
           id="g104"><path
             id="path106"
             style="fill:#465a64;fill-opacity:1;fill-rule:nonzero;stroke:none"
             d="m 0,0 c -0.095,0 -0.19,0.006 -0.284,0.02 l -24.241,3.386 c -0.524,0.073 -0.959,0.355 -1.193,0.771 -0.234,0.417 -0.248,0.935 -0.039,1.42 l 4.489,10.406 c 0.381,0.882 1.427,1.645 2.383,1.739 l 27.124,2.66 c 0.068,0.007 0.133,0.01 0.195,0.01 0.493,0 0.891,-0.192 1.12,-0.542 0.239,-0.364 0.255,-0.835 0.042,-1.327 L 2.209,1.421 C 1.854,0.598 0.925,0 0,0 Z" /></g><g
           transform="translate(90.1523,113.2827)"
           id="g108"><path
             id="path110"
             style="fill:#ffffff;fill-opacity:1;fill-rule:nonzero;stroke:none"
             d="m 0,0 c -0.078,0 -0.16,-0.004 -0.244,-0.012 l -27.124,-2.66 c -1.139,-0.112 -2.339,-0.988 -2.793,-2.038 l -4.489,-10.407 c -0.272,-0.63 -0.249,-1.309 0.062,-1.862 0.312,-0.555 0.88,-0.927 1.56,-1.022 l 24.241,-3.387 c 0.116,-0.016 0.234,-0.024 0.353,-0.024 1.133,0 2.23,0.708 2.668,1.723 L 1.621,-2.566 C 1.898,-1.925 1.868,-1.269 1.538,-0.767 1.217,-0.28 0.657,0 0,0 m 0,-1 c 0.677,0 0.992,-0.501 0.703,-1.17 l -7.387,-17.122 c -0.28,-0.65 -1.035,-1.12 -1.75,-1.12 -0.072,0 -0.144,0.005 -0.215,0.015 l -24.241,3.386 c -0.772,0.108 -1.151,0.782 -0.842,1.498 l 4.489,10.406 c 0.309,0.716 1.197,1.363 1.972,1.44 l 27.125,2.66 C -0.096,-1.002 -0.047,-1 0,-1" /></g><g
           transform="translate(53.8784,95.2295)"
           id="g112"><path
             id="path114"
             style="fill:#d32f2f;fill-opacity:1;fill-rule:nonzero;stroke:none"
             d="m 0,0 c -3.409,-0.443 -6.333,-2.16 -8.385,-4.599 l 7.108,0.924 c 0.124,-0.952 0.997,-1.625 1.95,-1.502 0.952,0.125 1.625,0.997 1.501,1.951 l 7.107,0.923 C 6.674,-0.47 3.41,0.443 0,0" /></g><g
           transform="translate(69.1465,84.1025)"
           id="g116"><path
             id="path118"
             style="fill:none;stroke:#d32f2f;stroke-width:1;stroke-linecap:round;stroke-linejoin:miter;stroke-miterlimit:10;stroke-dasharray:none;stroke-opacity:1"
             d="m 0,0 c -4.234,-3.893 -9.885,-6.27 -16.09,-6.27 -2.524,0 -4.956,0.393 -7.238,1.123" /></g><g
           transform="translate(73.228,79.0293)"
           id="g120"><path
             id="path122"
             style="fill:none;stroke:#d32f2f;stroke-width:1;stroke-linecap:round;stroke-linejoin:miter;stroke-miterlimit:10;stroke-dasharray:none;stroke-opacity:1"
             d="m 0,0 c -5.355,-4.786 -12.423,-7.696 -20.171,-7.696 -3.255,0 -6.39,0.513 -9.329,1.464" /></g><g
           transform="translate(77.4429,73.792)"
           id="g124"><path
             id="path126"
             style="fill:none;stroke:#d32f2f;stroke-width:1;stroke-linecap:round;stroke-linejoin:miter;stroke-miterlimit:10;stroke-dasharray:none;stroke-opacity:1"
             d="m 0,0 c -6.511,-5.711 -15.044,-9.174 -24.386,-9.174 -4.044,0 -7.936,0.649 -11.577,1.848" /></g><g
           transform="translate(82.2656,67.7969)"
           id="g128"><path
             id="path130"
             style="fill:none;stroke:#d32f2f;stroke-width:1;stroke-linecap:round;stroke-linejoin:miter;stroke-miterlimit:10;stroke-dasharray:none;stroke-opacity:1"
             d="m 0,0 c -7.833,-6.771 -18.042,-10.867 -29.209,-10.867 -4.889,0 -9.594,0.785 -13.997,2.235" /></g><g
           transform="translate(54.166,139.6392)"
           id="g132"><path
             id="path134"
             style="fill:#465a64;fill-opacity:1;fill-rule:nonzero;stroke:none"
             d="m 0,0 c -21.135,0 -38.268,-17.133 -38.268,-38.266 0,-15.89 9.689,-29.509 23.478,-35.294 l 4.971,13.3 c -8.41,3.76 -14.276,12.186 -14.276,21.994 0,13.306 10.788,24.093 24.095,24.093 9.159,0 17.124,-5.11 21.2,-12.634 l 14.849,1.393 C 30.768,-10.604 16.625,0 0,0" /></g></g></g></g></svg>