<?xml version="1.0" encoding="UTF-8" standalone="no"?>
<svg
   xmlns:dc="http://purl.org/dc/elements/1.1/"
   xmlns:cc="http://creativecommons.org/ns#"
   xmlns:rdf="http://www.w3.org/1999/02/22-rdf-syntax-ns#"
   xmlns:svg="http://www.w3.org/2000/svg"
   xmlns="http://www.w3.org/2000/svg"
   xmlns:sodipodi="http://sodipodi.sourceforge.net/DTD/sodipodi-0.dtd"
   xmlns:inkscape="http://www.inkscape.org/namespaces/inkscape"
   viewBox="0 0 431.99999 431.99999"
   height="432"
   width="432"
   xml:space="preserve"
   id="svg2"
   version="1.1"
   sodipodi:docname="store_appicon.svg"
   inkscape:version="1.0.1 (3bc2e813f5, 2020-09-07)"
   inkscape:export-filename="/home/life/Source/etrax_rescue_app/assets/launcher/store_appicon.png"
   inkscape:export-xdpi="96"
   inkscape:export-ydpi="96"><sodipodi:namedview
     pagecolor="#ffffff"
     bordercolor="#666666"
     borderopacity="1"
     objecttolerance="10"
     gridtolerance="10"
     guidetolerance="10"
     inkscape:pageopacity="1"
     inkscape:pageshadow="2"
     inkscape:window-width="1600"
     inkscape:window-height="1163"
     id="namedview36"
     showgrid="false"
     showguides="true"
     inkscape:lockguides="false"
     inkscape:zoom="0.98221245"
     inkscape:cx="243.83354"
     inkscape:cy="322.12501"
     inkscape:window-x="0"
     inkscape:window-y="0"
     inkscape:window-maximized="1"
     inkscape:current-layer="layer2"
     inkscape:document-rotation="0"><inkscape:grid
       type="xygrid"
       id="grid39" /></sodipodi:namedview><metadata
     id="metadata8"><rdf:RDF><cc:Work
         rdf:about=""><dc:format>image/svg+xml</dc:format><dc:type
           rdf:resource="http://purl.org/dc/dcmitype/StillImage" /><dc:title></dc:title></cc:Work></rdf:RDF></metadata><defs
     id="defs6"><filter
       inkscape:collect="always"
       style="color-interpolation-filters:sRGB"
       id="filter907"
       x="-2.0996221e-05"
       width="1.000042"
       y="-1.7686891e-05"
       height="1.0000354"><feGaussianBlur
         inkscape:collect="always"
         stdDeviation="0.0019175408"
         id="feGaussianBlur909" /></filter></defs><g
     inkscape:groupmode="layer"
     id="layer2"
     inkscape:label="Icon"
     style="display:inline;opacity:0.999;filter:url(#filter907)"><g
       id="g1689"
       transform="matrix(1.505083,0,0,1.505083,-110.10275,-107.02725)"><g
         clip-path="none"
         id="g14"
         transform="matrix(2.7529718,0,0,-2.7529718,79.130905,358.51124)"
         style="opacity:1"
         mask="none"><g
           transform="translate(40.3042,52.7056)"
           id="g20" /><g
           transform="translate(44.7358,64.3403)"
           id="g24" /><g
           transform="translate(83.5278,15.8418)"
           id="g28"><path
             id="path30"
             style="fill:none;stroke:#d32f2f;stroke-width:1;stroke-linecap:round;stroke-linejoin:miter;stroke-miterlimit:10;stroke-dasharray:none;stroke-opacity:1"
             d="m 0,0 c -11.593,-8.762 -26.457,-13.05 -41.844,-10.785 -3.117,0.459 -6.13,1.18 -9.032,2.117" /></g><g
           transform="translate(44.8271,50.1362)"
           id="g32" /><g
           transform="translate(52.0293,68.7944)"
           id="g36"><path
             id="path38"
             style="fill:#465a64;fill-opacity:1;fill-rule:nonzero;stroke:none;stroke-width:2.75297"
             d="m 211.82227,171.875 c -4.36897,0 -7.90625,6.41768 -7.90625,14.32422 v 32.91211 h 19.25 c -0.93498,-0.49807 -1.70623,-1.22741 -2.22071,-2.14258 -0.85617,-1.52239 -0.91873,-3.39063 -0.16992,-5.125 l 9.5,-22.02539 v -3.61914 c 0,-7.90654 -3.54394,-14.32422 -7.91016,-14.32422 z m 18.45312,24.89453 -6.97266,16.16406 c -0.85066,1.97113 0.19307,3.82573 2.31836,4.12305 l 4.6543,0.65039 z"
             transform="matrix(0.36324382,0,0,-0.36324382,-80.773112,61.432593)" /></g><g
           transform="translate(86.1011,68.3975)"
           id="g44"><path
             id="path46"
             style="fill:#465a64;fill-opacity:1;fill-rule:nonzero;stroke:none"
             d="m 0,-1 c 0.677,0 0.992,-0.501 0.703,-1.17 l -7.387,-17.122 c -0.28,-0.65 -1.035,-1.12 -1.75,-1.12 -0.072,0 -0.144,0.005 -0.215,0.015 l -24.241,3.386 c -0.772,0.108 -1.151,0.782 -0.842,1.498 l 4.489,10.406 c 0.309,0.716 1.197,1.363 1.972,1.44 l 27.125,2.66 C -0.096,-1.002 -0.047,-1 0,-1"
             sodipodi:nodetypes="cccsccccccc" /></g><g
           transform="translate(49.8271,50.3442)"
           id="g48"><path
             id="path50"
             style="fill:#d32f2f;fill-opacity:1;fill-rule:nonzero;stroke:none"
             d="m 0,0 c -3.409,-0.443 -6.333,-2.16 -8.385,-4.599 l 7.108,0.924 c 0.124,-0.952 0.997,-1.624 1.95,-1.502 0.952,0.125 1.625,0.997 1.501,1.951 l 7.107,0.923 C 6.674,-0.47 3.41,0.443 0,0" /></g><g
           transform="translate(65.0952,39.2178)"
           id="g52"><path
             id="path54"
             style="fill:none;stroke:#d32f2f;stroke-width:1;stroke-linecap:round;stroke-linejoin:miter;stroke-miterlimit:10;stroke-dasharray:none;stroke-opacity:1"
             d="m 0,0 c -4.234,-3.893 -9.885,-6.27 -16.09,-6.27 -2.524,0 -4.956,0.393 -7.238,1.123" /></g><g
           transform="translate(69.1768,34.1445)"
           id="g56"><path
             id="path58"
             style="fill:none;stroke:#d32f2f;stroke-width:1;stroke-linecap:round;stroke-linejoin:miter;stroke-miterlimit:10;stroke-dasharray:none;stroke-opacity:1"
             d="m 0,0 c -5.355,-4.786 -12.423,-7.696 -20.171,-7.696 -3.255,0 -6.39,0.513 -9.329,1.464" /></g><g
           transform="translate(73.3916,28.9072)"
           id="g60"><path
             id="path62"
             style="fill:none;stroke:#d32f2f;stroke-width:1;stroke-linecap:round;stroke-linejoin:miter;stroke-miterlimit:10;stroke-dasharray:none;stroke-opacity:1"
             d="m 0,0 c -6.511,-5.711 -15.044,-9.174 -24.386,-9.174 -4.044,0 -7.936,0.649 -11.577,1.848" /></g><g
           transform="translate(78.2144,22.9121)"
           id="g64"><path
             id="path66"
             style="fill:none;stroke:#d32f2f;stroke-width:1;stroke-linecap:round;stroke-linejoin:miter;stroke-miterlimit:10;stroke-dasharray:none;stroke-opacity:1"
             d="m 0,0 c -7.833,-6.771 -18.042,-10.867 -29.209,-10.867 -4.889,0 -9.594,0.785 -13.997,2.235" /></g><g
           transform="translate(50.1147,94.7539)"
           id="g68"><path
             id="path70"
             style="fill:#465a64;fill-opacity:1;fill-rule:nonzero;stroke:none"
             d="m 0,0 c -21.135,0 -38.268,-17.133 -38.268,-38.266 0,-15.889 9.689,-29.508 23.478,-35.294 l 4.971,13.3 c -8.41,3.76 -14.276,12.186 -14.276,21.994 0,13.306 10.788,24.093 24.095,24.093 9.159,0 17.124,-5.11 21.2,-12.634 l 14.849,1.393 C 30.768,-10.604 16.625,0 0,0" /></g></g><path
         id="path26-6"
         style="display:inline;opacity:0.999;fill:#465a64;fill-opacity:1;fill-rule:nonzero;stroke:none;stroke-width:2.75297;filter:url(#filter907)"
         d="m 201.16058,194.45685 -6.254,14.49841 c -0.77358,1.78943 -2.85208,3.08333 -4.8177,3.08333 -0.19821,0 -0.39918,-0.0138 -0.59189,-0.0413 l -31.02323,-4.33318 c -2.1253,-0.29732 -3.16868,-2.15282 -2.31801,-4.12395 l 5.16733,-11.97543 c 0.85067,-1.97113 3.29255,-3.7523 5.42886,-3.96153 l 34.42391,-3.37711"
         sodipodi:nodetypes="ccscccccc" /></g></g><g
     transform="matrix(1.3333333,0,0,-1.3333333,0,132.28387)"
     id="g10" /><g
     inkscape:groupmode="layer"
     id="layer1"
     inkscape:label="SafeArea"
     style="display:none"><rect
       style="fill:none;fill-rule:evenodd;stroke:#000000;stroke-width:2.88043;stroke-opacity:1"
       id="rect70"
       width="293.11957"
       height="293.11957"
       x="73.440208"
       y="73.440208" /></g></svg>
