<?xml version="1.0" encoding="UTF-8" standalone="no"?>
<svg
   xmlns:dc="http://purl.org/dc/elements/1.1/"
   xmlns:cc="http://creativecommons.org/ns#"
   xmlns:rdf="http://www.w3.org/1999/02/22-rdf-syntax-ns#"
   xmlns:svg="http://www.w3.org/2000/svg"
   xmlns="http://www.w3.org/2000/svg"
   xmlns:sodipodi="http://sodipodi.sourceforge.net/DTD/sodipodi-0.dtd"
   xmlns:inkscape="http://www.inkscape.org/namespaces/inkscape"
   inkscape:version="1.0 (4035a4fb49, 2020-05-01)"
   sodipodi:docname="no-list-24px.svg"
   height="24"
   width="24"
   version="1.1"
   id="svg10">
  <sodipodi:namedview
     inkscape:current-layer="svg10"
     inkscape:window-maximized="1"
     inkscape:window-y="0"
     inkscape:window-x="0"
     inkscape:cy="12"
     inkscape:cx="12"
     inkscape:zoom="33.416667"
     inkscape:pagecheckerboard="true"
     showgrid="false"
     id="namedview8"
     inkscape:window-height="1016"
     inkscape:window-width="1920"
     inkscape:pageshadow="2"
     inkscape:pageopacity="0"
     guidetolerance="10"
     gridtolerance="10"
     objecttolerance="10"
     borderopacity="1"
     bordercolor="#666666"
     pagecolor="#ffffff" />
  <metadata
     id="metadata16">
    <rdf:RDF>
      <cc:Work
         rdf:about="">
        <dc:format>image/svg+xml</dc:format>
        <dc:type
           rdf:resource="http://purl.org/dc/dcmitype/StillImage" />
        <dc:title></dc:title>
      </cc:Work>
    </rdf:RDF>
  </metadata>
  <defs
     id="defs14" />
  <path
     fill="none"
     d="M0 0h24v24H0z"
     id="path2" />
  <path
     id="path4"
     style="fill-opacity:1;fill:#000000;stroke:none"
     d="M 4.2695312,3 3,4.2695312 l 4,4 V 9 h 0.7304688 l 2,2 H 7 v 2 h 4.730469 l 2,2 H 7 v 2 h 8.730469 l 4,4 L 21,19.730469 18.269531,17 l -2,-2 -2,-2 -2,-2 -2,-2 L 8.2695312,7 Z M 3,7 V 9 H 5 V 7 Z m 7.808594,0 2,2 H 21 V 7 Z M 3,11 v 2 h 2 v -2 z m 11.808594,0 2,2 H 21 V 11 Z M 3,15 v 2 h 2 v -2 z m 15.808594,0 2,2 H 21 v -2 z" />
  <path
     d="M0 0h24v24H0z"
     fill="none"
     id="path8" />
</svg>
